<svg xmlns="http://www.w3.org/2000/svg" width="467" height="99.5" baseProfile="tiny" version="1.2">
  <path fill="#FFF" d="M11.641 94.161c-3.492 0-7.291-1.076-9.942-2.727L.125 85.598h.156c4.375 4.262 7.868 5.796 11.36 5.796s6.525-1.878 6.525-6.253c0-3.185-2.184-4.261-7.369-7.022C4.769 74.898.932 72.365.932 67.186c0-5.717 5.64-7.599 11.13-7.599 2.956 0 5.873.501 7.87 1.116l1.341 5.143h-.112c-2.11-1.96-5.911-3.649-9.479-3.649-2.88 0-5.76 1.384-5.76 4.49 0 2.647 1.455 4.028 8.483 7.596 7.06 3.611 9.174 6.257 9.174 10.82 0 6.48-6.141 9.058-11.938 9.058M58.699 70.334l-6.143 23.402h-.308c-1.34 0-2.456-.731-3.453-3.418l-6.641-17.532-5.947 17.034c-.807 2.303-1.806 3.916-3.916 3.916h-.307l-5.797-22.368c-.806-3.107-1.304-3.717-2.802-4.914v-.113h8.1v.113c-.731.698-1.001 1.388-1.001 2.155 0 .726.193 1.532.425 2.49l3.879 15.344 6.062-17.796c.574-1.652 1.383-2.495 3.072-2.495h.616l7.52 19.562 3.685-14.771c.189-.688.268-1.266.268-1.801 0-1.035-.423-1.8-1.382-2.689v-.113h6.448v.113c-1.15 1.157-1.805 1.655-2.378 3.881M68.905 70.563v18.64c0 1.885.231 3.037 1.692 4.111v.115h-7.945v-.115c1.459-1.074 1.727-2.227 1.727-4.111v-18.64c0-1.88-.268-3.03-1.727-4.109v-.113h7.985v.113c-1.461 1.079-1.732 2.23-1.732 4.109M92.627 93.431c-1.995 0-3.682-.154-5.562-3.414l-4.378-7.636c-.804-1.421-.883-1.458-2.114-1.458H79.04v8.28c0 1.885.232 3.037 1.692 4.111v.116h-7.951v-.116c1.463-1.074 1.732-2.227 1.732-4.111v-18.64c0-1.88-.269-3.03-1.732-4.109v-.113h10.212c6.104 0 9.905 1.96 9.905 6.946 0 3.799-2.534 6.215-6.219 7.178l4.761 8.245c1.495 2.566 3.226 3.682 5.373 4.604v.116h-4.186M82.38 68.412h-1.807c-1.186 0-1.533.234-1.533 1.653v8.783h2.877c3.344 0 6.106-1.802 6.106-5.562 0-3.756-2.303-4.874-5.643-4.874"/>
  <path fill="#FFF" d="M115.464 93.43H96.311v-.115c1.458-1.074 1.804-2.227 1.804-4.111v-18.64c0-1.88-.346-3.029-1.804-4.109v-.113h17.733l.962 3.95h-.078c-1.573-1.26-2.492-1.879-5.642-1.879h-5.104c-1.267 0-1.574.923-1.574 1.426v8.319h9.595l.27 3.07h-.118c-.498-.421-1.345-.997-2.762-.997h-6.985v8.521c0 2.223.345 2.609 1.574 2.609h5.104c3.917 0 4.875-.538 7.288-2.609h.08l-1.19 4.678zM152.136 92.865c-2.622 1.003-6.323 1.505-9.059 1.505-9.908 0-17.272-6.708-17.272-16.809 0-11.488 7.633-17.926 17.426-17.926 2.775 0 6.477.423 9.291 1.194l.424 5.783h-.116c-3.084-3.085-6.824-4.357-9.599-4.357-6.515 0-11.951 5.012-11.951 14.535 0 9.138 5.821 14.919 12.838 14.919 3.353 0 6.591-1.735 10.254-4.896h.077l-2.313 6.052zM169.832 94.37c-9.483 0-14.225-7.095-14.225-14.227 0-7.209 4.818-14.456 14.61-14.456 9.483 0 14.265 7.095 14.265 14.227-.001 7.209-4.858 14.456-14.65 14.456m.191-26.369c-6.477 0-9.521 5.743-9.521 11.449 0 6.092 3.392 12.606 9.56 12.606 6.476 0 9.523-5.744 9.523-11.449 0-6.091-3.394-12.606-9.562-12.606M208.883 93.137c-2.159.848-5.436 1.233-7.71 1.233-8.172 0-14.38-5.553-14.38-13.878 0-9.485 6.477-14.805 14.572-14.805 2.274 0 5.551.347 7.864 1.003l.347 4.78h-.115c-2.545-2.545-5.821-3.47-8.096-3.47-5.396 0-9.676 4.009-9.676 11.873 0 7.557 4.549 12.183 10.37 12.183 2.776 0 5.167-1.117 8.675-3.932h.077l-1.928 5.013zM229.275 93.637v-.077c1.35-1.195 1.195-2.236.463-4.278l-1.85-5.167h-9.793l-1.851 5.167c-.693 1.928-.81 2.854.579 4.278v.077h-6.207v-.077c1.966-1.233 2.158-2.545 2.776-4.278l6.398-18.08c.425-1.234.771-2.121.771-2.854 0-.654-.192-1.272-.771-1.772v-.156h6.785l8.096 22.861c.81 2.235 1.195 3.122 3.046 4.278v.077h-8.442zm-6.283-23.362l-4.164 11.757h8.327l-4.163-11.757zM248.783 81.533c-.386-.194-.502-.271-1.891-.348l-3.353-.232-3.394.232c-1.387.076-1.502.153-1.889.348h-.154V77.6h.154c.387.194.502.347 1.889.424l3.394.192 3.353-.192c1.389-.077 1.505-.229 1.891-.424h.115v3.934h-.115zM278.12 92.865c-2.622 1.003-6.323 1.505-9.06 1.505-9.909 0-17.271-6.708-17.271-16.809 0-11.488 7.631-17.926 17.424-17.926 2.776 0 6.476.423 9.29 1.194l.425 5.783h-.116c-3.083-3.085-6.822-4.357-9.599-4.357-6.515 0-11.951 5.012-11.951 14.535 0 9.138 5.822 14.919 12.836 14.919 3.356 0 6.594-1.735 10.258-4.896h.074l-2.31 6.052zM295.814 94.37c-9.482 0-14.225-7.095-14.225-14.227 0-7.209 4.818-14.456 14.609-14.456 9.484 0 14.264 7.095 14.264 14.227.001 7.209-4.856 14.456-14.648 14.456m.194-26.369c-6.479 0-9.522 5.743-9.522 11.449 0 6.092 3.393 12.606 9.56 12.606 6.478 0 9.523-5.744 9.523-11.449-.001-6.091-3.393-12.606-9.561-12.606M330.471 93.637h-17.886v-.115c1.465-1.079 1.733-2.237 1.733-4.124V70.66c0-1.889-.269-3.045-1.733-4.125v-.114h7.979v.114c-1.465 1.08-1.734 2.236-1.734 4.125v18.543c0 2.236.347 2.353 1.581 2.353h3.546c3.972 0 5.475-1.08 7.633-2.853h.078l-1.197 4.934zM350.325 93.637v-.077c1.35-1.195 1.194-2.236.463-4.278l-1.852-5.167h-9.791l-1.85 5.167c-.695 1.928-.811 2.854.578 4.278v.077h-6.207v-.077c1.965-1.233 2.159-2.545 2.775-4.278l6.398-18.08c.425-1.234.772-2.121.772-2.854 0-.654-.194-1.272-.772-1.772v-.156h6.787l8.095 22.861c.809 2.235 1.194 3.122 3.045 4.278v.077h-8.441zm-6.284-23.362l-4.164 11.757h8.328l-4.164-11.757zM361.62 99.227h-.924c1.579-1.773 1.927-3.7 1.927-4.855-1.503-.156-2.467-1.389-2.467-2.738 0-1.504 1.233-2.699 2.735-2.699 1.504 0 2.776 1.195 2.776 3.084.001 3.585-2.427 5.744-4.047 7.208M405.066 65.726v14.38c0 8.096-3.856 14.266-12.875 14.266-10.063 0-14.11-5.282-14.11-13.957V65.726c0-2.311-.348-3.661-2.121-5.012v-.115h9.138v.115c-1.774 1.351-2.12 2.701-2.12 5.012v14.38c0 7.402 2.233 11.72 9.214 11.72 7.594 0 9.831-5.166 9.831-11.72v-14.38c0-2.311-.31-3.661-2.083-5.012v-.115h7.247v.115c-1.773 1.35-2.121 2.701-2.121 5.012M421.065 94.37c-3.508 0-7.324-1.08-9.984-2.737l-1.58-5.859h.152c4.396 4.278 7.904 5.823 11.412 5.823 3.509 0 6.554-1.892 6.554-6.286 0-3.199-2.197-4.279-7.402-7.056-6.052-3.238-9.907-5.78-9.907-10.987 0-5.743 5.667-7.633 11.18-7.633 2.969 0 5.899.501 7.902 1.119l1.35 5.165h-.115c-2.12-1.966-5.937-3.663-9.521-3.663-2.892 0-5.784 1.388-5.784 4.512 0 2.659 1.465 4.047 8.521 7.632 7.092 3.624 9.214 6.283 9.214 10.873-.001 6.514-6.17 9.097-11.992 9.097M456.84 93.637v-.077c1.657-1.656 1.428-2.737.58-5.204l-2.198-6.283h-12.028l-2.197 6.283c-.809 2.312-1.157 3.779.732 5.204v.077h-7.133v-.077c1.775-1.04 2.236-1.927 3.395-5.204l8.287-23.593c.5-1.389.771-2.892-.539-4.008v-.156h7.209l9.828 27.757c.965 2.698 1.352 3.817 3.587 5.204v.077h-9.523zm-7.672-28.528l-5.049 14.418h10.178l-5.129-14.418zM.121.527h68.093v45.389H.121z"/>
  <path fill="#EF413D" d="M67.541.937l-33.713 22.06 33.713 22.059zM.121.94l34.043 22.28L.121 45.501z"/>
  <path fill="#00529C" d="M29.626 1.13h9.081v44.182h-9.081z"/>
  <path fill="#231F20" d="M68.214 45.916H.121V.527h68.093v45.389zM67.001 1.732H1.328v42.976h65.673V1.732z"/>
  <path fill="#FFF" d="M242.6 32.93c.246.253.374.552.374.907s-.128.653-.374.904-.548.381-.899.381c-.353 0-.658-.13-.903-.381-.243-.251-.371-.549-.371-.904s.128-.654.375-.907c.245-.243.547-.371.899-.371.348 0 .65.128.899.371m.143-.135c-.281-.29-.636-.438-1.043-.438-.41 0-.755.148-1.042.438-.29.286-.435.64-.435 1.042 0 .41.145.761.43 1.048.289.293.637.438 1.047.438.407 0 .762-.145 1.043-.438.292-.287.436-.638.436-1.048 0-.412-.144-.756-.436-1.042m-.824.971c-.063.025-.152.039-.27.039h-.26v-.585h.243c.158 0 .272.02.345.055.071.042.113.123.113.234.001.132-.06.22-.171.257m-.818.876h.289v-.641h.223c.154 0 .262.017.321.053.1.064.157.189.157.374v.126l.003.057c0 .013.003.019.003.019.003.005.003.012.003.012h.271l-.015-.012c-.005-.019-.005-.044-.016-.089v-.246c0-.08-.029-.159-.089-.246-.059-.091-.151-.132-.28-.159.1-.022.177-.043.233-.078.109-.07.163-.176.163-.323 0-.202-.081-.344-.253-.408-.094-.039-.24-.064-.444-.064h-.569v1.625zM158.423 40.581c-5.379-3.323-12.685-3.905-24.471-.779-12.567 2.828-16.751 4.637-22.251 1.002-2.117-1.783-2.875-4.667-2.307-8.802 1.309-6.749 4.855-13.24 11.156-20.449 3.519-3.757 6.775-6.97 11.083-8.265 3.299-.799 2.986 1.681 2.595 2.025-.421.008-1.133.069-1.675.416-.448.33-1.668 1.386-1.729 2.817-.098 2.198 2.271 1.741 3.296.538 1.102-1.354 2.73-3.963 1.445-6.37-.538-.866-1.462-1.453-2.614-1.657-3.941-.234-7.616 1.58-11.004 3.561-7.416 4.932-13.344 11.761-16.7 19.233-1.935 4.499-3.687 10.972-1.058 16.224 2.025 3.649 6.238 5.581 11.263 5.167 3.527-.338 7.786-1.439 10.654-2.1 2.864-.661 17.533-5.48 22.358 2.914 0 0 1.598-2.974 5.605-3.032 3.293-.288 8.046.917 11.503 3.35-1.152-1.672-4.422-4.106-7.149-5.793"/>
  <path fill="#FFF" d="M135.448 12.396c-2.743-1.715-8.261 1.566-12.672 7.214-4.045 5.066-5.79 10.96-3.888 13.687 2.823 3.195 8.062-1.453 10.295-3.957l.285-.296c1.513-1.548 2.688-3.411 3.822-5.228 0 0 1.039-1.634 1.093-1.713.64-.11 1.416-.287 2.292-.532-.014.031-3.346 5.39-3.007 8.047.108.814.026 3.787 3.051 4.677 4.028.646 7.25-2.336 10.091-4.993 0 0 .481-.45.752-.704-.065.26-.16.613-.16.613-1.177 3.934.413 4.76 1.408 5.063 3.006.823 6.597-3.347 6.61-3.347-.094 1.319-.365 2.413 1.089 3.28 1.365.472 2.757-.229 3.807-.896 3.791-2.562 6.847-6.597 9.317-9.998h-1.573c-.024.021-3.887 5.336-6.399 6.506 0 0-.457.2-.724.035-.319-.266-.195-.868.002-1.256.019-.016 9.697-16.13 9.697-16.13h-4.572s-.497.803-.538.864c-.032-.031-.106-.152-.153-.206-2.836-3.759-9.248 2.013-14.081 8.705-1.857 2.568-4.225 5.467-6.682 7.563 0 0-3.634 3.192-5.185.893-.57-.957-.398-2.356-.074-3.279 1.805-4.944 4.924-9.41 8.473-12.106 1.001-.738 2.093-.958 2.622-.644.522.3.599 1.027.277 1.51-.823-.027-1.49.211-2.026.745-1.057 1.065-1.422 2.096-1.094 3.053 1.642 2.228 4.909-2.182 4.744-4.858-.057-.964-.587-1.882-1.392-2.32-1.19-.695-3.015-.508-4.196.038-1.574.575-4.072 2.558-5.531 4.09-1.828 1.948-4.981 4.095-5.965 3.863.32-.832 2.979-6.029.185-7.983m22.038 7.704c.892-1.173 3.478-4.331 4.113-4.86 2.124-1.781 2.968-1.009 3.039-.455-1.976 3.402-4.317 7.28-6.511 10.782.006-.007-.692.994-.692.994-.972 1.432-1.951 2.643-3.541 3.491-.223.061-.605.088-.85-.082-.299-.187-.418-.501-.387-.84.101-1.087 1.26-4.417 4.829-9.03m-24.869 2.046s-.04.097-.057.145c-.007.006-1.999 3.097-1.999 3.097-1.196 1.536-2.692 3.465-4.568 4.395-.555.172-1.325.276-1.714-.186-.831-.947-.401-2.258-.054-3.324l.125-.381c.994-2.596 2.575-4.87 4.108-6.978.02-.017.061-.033.078-.024 0 0 .008.007.017.03.962 1.78 2.773 2.599 4.118 2.968.015.012.02.03.02.05 0 .036-.022.096-.074.208m1.884-3.667c-.01.016-.892 1.959-.892 1.959-.122.089-.319.038-.55-.019l-.396-.064c-1.234-.354-2.166-1.139-2.453-2.083-.397-1.822 1.234-3.249 1.949-3.77.687-.457 1.756-.695 2.382-.224.38.43.524.984.524 1.591 0 .822-.267 1.747-.564 2.61M192.302 24.359c-.448-.92-1.491-1.5-2.609-1.439-3.62.327-7.162 3.179-9.02 7.258-.98 2.108-1.509 3.84-1.863 6.589 1.129-1.237 3.424-3.264 6.033-4.39 0 0 .357-2.632 2.16-5.008.687-.964 2.063-2.531 3.6-2.121 1.341.433.87 3.998-.916 7.434-1.325 2.547-3.342 5.067-5.393 6.82-1.806 1.466-4.483 3.239-6.825 1.867-1.473-.829-2.224-2.568-2.068-4.832.701-6.397 3.746-11.846 8.101-18.042 4.489-5.777 9.435-11.68 16.108-14.83 1.357-.659 2.615-.809 3.701-.414 0 0-6.255 3.301-9.241 9.391-.748 1.535-1.81 3.637-.748 5.481.559.962 1.54 1.039 2.333.996 3.654-.816 6.021-4.08 7.95-7.073 1.12-2.278 2.118-4.526 2.118-7.037 0-.299-.016-.692-.05-1.008 1.756-.877 5.332.687 5.332.687 2.803.883 8.767 5.253 10.771 6.092.986-1.094 2.596-2.732 3.503-3.566l-1.312-.773c-2.103-1.221-4.327-2.397-6.519-3.531-4.966-2.599-9.019-1.698-11.07-.992-.81.288-1.551.525-1.551.525-1.526-1.607-4.035-1.44-5.88-1.01-6.64 1.818-12.808 6.264-19.418 13.975-4.863 6.05-7.873 11.267-9.48 16.42-1.237 3.467-1.614 8.574 1.407 11.604 2.573 2.567 5.98 2.012 8.387 1.087 5.214-2.462 9.902-7.752 12.235-13.851.56-1.799 1.194-4.357.224-6.309m11.988-19.09c-.691 7.571-6.846 12.016-8.369 12.367-.925.186-2.497-.208-1.095-3.387 2.076-4.286 5.603-7.912 9.397-9.772.093.312.089.509.067.792M240.788 6.237c-3.309 1.789-6.742 2.96-10.893 2.556-1.156 1.23-2.271 2.519-3.306 3.841 5.825 1.411 12.009-1.749 15.452-4.75 3.638-3.02 5.506-6.834 5.506-6.834s-2.732 2.994-6.759 5.187M178.237 12.458h-4.345l-2.446 3.972h4.337z"/>
  <path fill="#FFF" d="M229.878 40.977c-.468.302-1.12.042-.877-.657.607-1.765 3.04-5.41 3.04-5.41l6.766-11.517h-4.637c-.223.381-.69 1.169-.69 1.169-.213-.339-.859-1.097-1.119-1.257-1.132-.679-2.797-.361-3.938.266-4.98 2.784-8.619 8.295-11.483 12.593 0 0-3.015 4.771-4.693 5.126-1.309.097-1.173-1.583-1.116-1.983.505-2.832 1.684-5.531 2.863-7.978 2.407-1.592 5.152-3.686 7.645-5.968 5.42-4.958 9.986-10.563 10.657-11.823 0 0-.729.143-1.587.165-4.16 5.561-12.683 13.639-15.269 14.834 1.144-2.63 8.539-15.192 14.829-21.215l.994-.913c1.535-1.428 3.123-2.91 4.361-3.134.129-.023.293-.018.438.286.054 1.115-.372 1.928-.876 2.881l-.691 1.368s.984-.187 1.635-.388c.746-1.357 1.583-2.873 1.276-4.692-.1-.576-.54-1.008-1.118-1.126-1.884-.337-3.927.995-5.571 2.062l-.07.042c-8.464 6.343-15.61 15.499-21.856 27.977-.455.328-2.204.717-2.506.531.618-1.207 1.397-2.845 1.784-4.621.071-.502.125-1.025.125-1.531 0-1.084-.27-2.121-1.284-2.825-1.203-.571-2.683-.306-3.672.133-4.474 1.773-7.812 6.155-10.216 9.764-1.302 2.279-2.59 4.739-2.953 7.549-.25 2.213.263 3.631 1.573 4.343 1.349.641 3.04-.028 3.708-.353 4.525-2.284 7.688-6.863 10.181-11.047.099-.007 1.453-.037 2.488-.304.013.018.021.018.044.031-.062.179-.586 1.704-.586 1.704-1.585 4.428-2.312 7.443-.826 9.231 2.136 2.516 5.665-.095 8.54-3.544-.617 4.139 1.617 4.791 3.319 4.474 1.964-.507 4.139-2.509 5.153-3.535-.322 1.205-.236 3.343 1.547 3.565 1.224.214 2.132-.375 3.191-.928 3.792-1.964 8.335-8.593 9.515-10.418h-1.55c-1.673 2.369-3.806 5.554-6.488 7.073m-34.047-.48c-.24-.351-.318-.745-.324-1.151-.047-2.483 2.743-6.89 4.715-9.37h.005c.826 1.845 2.694 2.865 3.827 3.336-1.404 2.976-6.211 9.408-8.223 7.185m9.01-8.505c-.13.082-2.493-.676-2.945-2.768-.384-1.788.909-3.197 2.164-3.908.535-.399 1.346-.546 1.939-.344.551.366.699.994.699 1.668 0 .418-.056.85-.104 1.251 0 0-.015.069-.015.088-.395 1.403-.995 2.784-1.738 4.013m18.923 7.703l-.454.373c-.632.549-1.285 1.122-2.072.829-.225-.071-.373-.337-.414-.566-.036-1.551.702-2.996 1.414-4.411l.178-.355c2.049-3.279 4.426-7.123 7.918-9.797.584-.402 1.222-.742 1.896-.479.158.141.335.384.335.62 0 .079-.072.28-.116.35-.968 1.497-1.897 3.081-2.8 4.604-1.768 2.997-3.597 6.108-5.885 8.832M86.444.494h2.278v45.533h-2.278z"/>
</svg>