<svg xmlns="http://www.w3.org/2000/svg" width="234.36" height="73.505">
  <path fill="#FFF" d="M101.55 73.505c-5.606-3.938-12.435-5.68-18.638-5.431-6.271.251-9.086 4.936-9.086 4.936-2.834-4.936-8.429-7.963-17.074-7.889-13.961.164-27.819 6.613-38.791 6.613-10.533 0-18.208-6.612-17.955-18.362C.45 32.776 17.851 14.212 30.86 5.853 38.335 1.05 44.598-.375 48.695.081c2.986.332 6.585 3.782 4.316 8.866-3.325 7.454-7.925 6.83-7.76 3.27.096-2.311 1.637-3.768 2.79-4.564.739-.51 2.035-.656 2.712-.669.655-.557 1.159-4.631-4.199-3.286-5.358 1.345-11.802 6.607-17.953 13.39-6.15 6.782-15.712 19.645-18.077 33.129-1.097 6.26-.36 17.658 14.456 17.527 12.561-.111 31.107-8.387 48.138-8.239 6.613.058 12.367 1.837 16.853 4.608 4.422 2.731 9.71 6.69 11.579 9.392m4.025-37.349h2.576S95.247 54.817 87.952 53.973c-4.073-.471-2.868-5.5-2.868-5.5s-5.729 6.699-10.958 5.361c-4.766-1.22-1.698-9.143-1.698-9.143-.541.219-10.847 11.849-18.086 9.06-7.576-2.919-3.652-12.652-2.207-15.575 1.218-2.468 2.567-4.873 2.567-4.873s-1.164.332-1.884.499c-.72.165-1.819.378-1.819.378s-3.584 5.828-5.773 8.738c-2.189 2.907-11.498 12.911-16.985 10.916-5.486-1.994-4.135-9.664-1.052-15.766 4.996-9.892 16.855-22.047 23.994-20.227 7.216 1.838 1.247 13.549 1.247 13.549s1.437.183 4.877-2.161c4.96-3.381 11.483-12.478 18.564-11.416 3.326.499 6.422 3.912 2.189 10.391-1.358 2.077-3.63 3.941-5.375 2.106-1.081-1.136-.139-3.225.997-4.655 1.607-2.023 3.824-1.746 3.824-1.746s1.164-2.688-1.801-2.632c-2.41.045-8.503 5.661-11.942 11.332-3.159 5.208-7.933 14.083-3.131 16.015 4.405 1.773 12.774-8.175 16.652-13.383C81.163 30.032 89.986 18.214 97.4 17.73c2.55-.166 4.074 2.161 4.074 2.161l.858-1.358h7.399S95.779 41.845 94.685 43.609c-.859 1.387-1.995 4.489 1.164 2.744 3.157-1.746 9.726-10.197 9.726-10.197m-57.458-2.364c-.129-.047-1.995-.582-3.814-1.746-1.819-1.164-2.661-2.891-2.725-3.011s-.139-.027-.212.074c-.074.102-.462.6-3.104 4.48-2.642 3.879-6.557 11.821-2.886 13.18 2.348.867 6.29-3.257 8.424-5.987 1.98-2.532 4.335-6.427 4.438-6.658.1-.229.008-.286-.121-.332m2.927-12.389c-1.94-1.469-6.886 1.968-6.911 5.477-.026 3.6 4.467 4.625 5.045 4.651 0 0 .508.137.71-.289.126-.265.736-1.393 1.419-3.18.684-1.786 1.547-5.29-.263-6.659m37.739 19.408c2.993-4.1 11.241-18.471 11.241-18.471s-.137-1.01-1.099-1.053c-1.143-.051-3.033.332-6.829 5.07s-6.713 8.516-8.855 12.433c-2.341 4.281-3.366 7.301-2.022 8.117.38.231.953.26 1.413.146.883-.219 2.027-1.098 3.602-2.916.737-.851 1.572-1.987 2.549-3.326m33.287-22.25h-7.037l-3.968 6.435h7.033l3.972-6.435zm90.829 48.889c-.567 0-1.049.204-1.461.608-.399.4-.6.888-.6 1.461 0 .576.2 1.064.6 1.482.396.39.888.6 1.461.6.569 0 1.061-.21 1.463-.6.402-.418.599-.906.599-1.482 0-.573-.196-1.061-.599-1.461-.413-.404-.893-.608-1.463-.608m2.399 2.07c0 .664-.228 1.229-.699 1.699-.467.474-1.039.707-1.699.707-.666 0-1.23-.233-1.703-.707-.462-.459-.693-1.035-.693-1.699 0-.656.231-1.229.709-1.694.464-.464 1.021-.702 1.688-.702.66 0 1.232.238 1.699.702.47.465.698 1.031.698 1.694m-1.774-.52c0-.193-.062-.326-.178-.391-.107-.064-.304-.1-.559-.1h-.396v.957h.424c.195 0 .341-.024.438-.051.17-.086.271-.215.271-.415m-1.587-.804h.914c.326 0 .568.035.715.095.283.113.414.338.414.664 0 .238-.086.409-.262.516-.082.062-.218.109-.377.143.206.027.362.111.453.248.088.145.141.276.141.413v.19c0 .062.008.125.008.19.007.079.007.122.025.138l.012.037h-.433c0-.007 0-.02-.003-.024-.014-.013-.014-.013-.014-.028l-.006-.09v-.211c0-.303-.078-.508-.25-.596-.098-.061-.27-.092-.512-.092h-.371v1.041h-.455v-2.634zm13.945-61.188c-5.197 3.345-12.405 6.373-19.322 5.707-1.75 1.816-3.625 3.909-5.508 6.198 12.007 2.368 22.51-5.069 28.1-11.406 3.488-3.953 5.209-7.481 5.209-7.481s-3.331 3.669-8.479 6.982m-20.577 54.539c-.997 1.598-2.124 4.646 1.163 2.742 4.004-2.316 9.707-10.972 9.707-10.972h2.575s-3.398 5.378-7.829 10.289c-4.061 4.497-9.009 8.586-12.496 8.183-4.073-.472-2.801-5.818-2.801-5.818s-5.846 6.206-9.863 5.764c-5.441-.602-3.787-7.334-3.787-7.334s-6.151 7.573-10.344 7.334c-6.58-.378-4.933-8.406-3.104-14.021.98-3.009 1.887-5.383 1.887-5.383s-.654.172-2.053.378c-.73.106-2.069.179-2.069.179s-2.731 4.837-4.922 7.746c-2.188 2.91-11.502 12.919-16.983 10.918-5.063-1.851-3.396-9.611-.445-15.777 4.302-8.987 16.403-21.909 23.386-20.217 7.237 1.753.169 14.967.169 14.967s.009.05.079.078c.146.056.52.094 1.396-.073 1.393-.265 2.647-.792 2.647-.792s7.272-15.243 15.308-25.218c8.035-9.974 24.064-27.148 30.368-22.997 1.542 1.016.839 4.537-1.231 8.808-.916.289-1.865.545-2.842.748 1.387-2.519 2.307-4.641 2.577-6.12.942-5.154-11.083 5.707-19.674 17.4-8.59 11.693-13.743 22.277-13.743 22.277s1.732-.98 4.434-3.158c2.82-2.273 6.701-5.838 10.918-10.197 2.832-2.928 6.166-6.611 9.285-10.726.931-.046 1.844-.141 2.733-.282-3.479 4.688-7.14 8.967-10.245 12.117-3.418 3.465-7.134 7.201-10.363 9.92-5.129 4.314-9.088 6.76-9.088 6.76s-7.531 15.148-3.438 16.127c2.402.572 7.149-6.742 7.149-6.742s6.188-9.459 9.921-13.707c5.092-5.8 9.474-9.143 13.853-9.216 2.555-.044 4.063 2.677 4.063 2.677l1.202-1.857h7.397c0-.002-13.799 23.433-14.897 25.195m-41.587-9.226c-.129-.046-1.732-.778-3.4-2.168-1.659-1.382-2.5-2.976-2.563-3.097-.065-.119-.139-.027-.215.074-.071.102-.373.365-3.015 4.244-2.641 3.879-6.681 11.877-3.01 13.235 2.349.868 6.256-3.239 8.389-5.97 1.98-2.533 3.832-5.756 3.934-5.986s.009-.285-.12-.332m3.733-6.544c.685-1.788 1.547-5.289-.263-6.661-1.94-1.467-6.885 1.97-6.91 5.479-.028 3.6 3.484 5.223 4.332 5.452.48.13.647.109.878-.276.153-.251 1.281-2.207 1.963-3.994m42.472-4.947c.151-.264.221-.498.221-.498s-.137-1.011-1.098-1.053c-1.145-.052-2.707.166-6.789 4.691-4.066 4.508-6.541 8.424-8.683 12.339-2.341 4.281-3.283 7.468-1.938 8.284.38.23.953.258 1.414.145.916-.221 1.941-1.068 3.518-2.887.736-.851 1.552-2.061 2.53-3.398 2.687-3.685 9.475-15.285 10.825-17.623m15.959-33.822c-5.197 3.345-12.405 6.373-19.322 5.707-1.75 1.816-3.625 3.909-5.508 6.198 12.007 2.368 22.51-5.069 28.1-11.406 3.488-3.953 5.209-7.481 5.209-7.481s-3.331 3.669-8.479 6.982m-33.733 8.707c-5.68-2.908-9.825-6.462-14.146-8.679-4.125-2.115-6.789-2.992-10.113-2.549-.553.073-1.377.342-1.377.342s1.723 5.853-5.099 15.701c-6.907 9.975-13.181 9.923-14.963 7.167-1.866-2.892.537-8.793 4.564-14.039 4.212-5.488 11.618-10.049 11.618-10.049s-2.364-1.44-8.164 1.847c-5.649 3.203-15.406 10.825-24.42 23.681-9.015 12.856-10.815 19.932-12.117 25.501-1.303 5.569-.111 11.526 6.066 11.526 6.18 0 13.355-9.42 15.379-12.699 3.764-6.101 6.221-15.452 1.094-14.163-2.527.636-4.572 3.438-5.859 6.128-1.325 2.767-1.857 5.412-1.857 5.412s-2.134.762-5 2.909c-2.868 2.147-4.738 4.197-4.738 4.197s.014-4.446 3.56-11.65c3.547-7.204 10.058-10.501 13.744-10.806 3.325-.275 7.647 2.549 3.989 12.967-3.657 10.418-14.463 23.053-25.824 23.219-10.479.154-17.351-13.228-2.77-36.574C131.841 9.28 150.794 1.355 156.944.469c6.152-.887 8.146 1.829 8.146 1.829s5.153-2.383 11.692-1.94c7.511.509 13.325 5.822 20.983 9.55-2.002 1.942-3.905 3.934-5.616 5.807m-27.972-10.12s-4.396 1.751-9.5 7.381c-5.127 5.653-8.08 11.974-5.879 13.65.843.64 2.791.748 6.338-2.439 2.766-2.484 5.578-5.736 7.484-10.391 2.286-5.58 1.559-8.135 1.557-8.201"/>
</svg>