<svg xmlns="http://www.w3.org/2000/svg" xmlns:xlink="http://www.w3.org/1999/xlink" width="334.249" height="411.999">
  <defs>
    <path id="a" d="M0 0h334.249v411.999H0z"/>
  </defs>
  <clipPath id="b">
    <use overflow="visible" xlink:href="#a"/>
  </clipPath>
  <path d="M141.733 30c13.906 0 18.68 9.272 18.68 23.18v102.844c0 19.223 7.324 25.894 13.175 25.894 4.662 0 8.389-4.237 6.725-9.734l-4.012-13.374c17.926 2.729 28.811 4.045 32.481 16.167l3.062 9.632c3.283 10.855 19.629 5.886 16.336-4.948l-4.23-12.449c16.181 2.152 28.082 3.705 31.634 15.437l3.391 9.38c3.264 10.805 19.646 5.95 16.332-4.943l-3.557-10.072c25.791 3.669 35.356 28.594 31.768 60.459-4.797 42.595-34.166 62.936-34.166 144.529H126.044c-15.432-61.973-46.52-105.326-81.875-138.431-20.861-19.533-17.609-40.151 3.494-40.15 25.078 0 60.752 28.374 76.393 45.396V53.18c0-13.908 3.774-23.18 17.677-23.18m0-30c-27.051 0-47.678 18.098-47.678 53.18v134.274c-48.529-27.005-81.059-10.855-90.873 13.979-9.09 23.007 2.395 47.098 20.482 64.034 59.836 56.027 70.264 111.718 78.934 146.532h196.753v-30c0-76.095 28.285-90.625 33.977-141.173 5.216-46.294-11.444-84.631-57.354-93.518-15.742-3.048-85.562-16.652-85.562-16.652V53.18c0-34.481-21.444-53.18-48.679-53.18" clip-path="url(#b)"/>
</svg>