<svg xmlns="http://www.w3.org/2000/svg" id="Layer_1" viewBox="0 0 85.2 82.5">
  <style>
    .st2{fill:#fff}
  </style>
  <path fill="#232534" d="M2.3 69.3c0 1.7 1.3 3 3 3h75.5c1.7 0 3-1.3 3-3V14c0-1.7-1.3-3-3-3H5.3c-1.7 0-3 1.3-3 3v55.3z"/>
  <path fill="#e6e6e6" d="M7 16.3h67.8V67H7z"/>
  <path d="M10.3 54.1h18.1v9.8H10.3zM31.8 54.1h18.1v9.8H31.8zM53.3 54.1h18.1v9.8H53.3z" class="st2"/>
  <path fill="#e90e2e" d="M10.3 24.4h61.1v27.7H10.3z"/>
  <path d="M10.3 19.1h21.6v.8H10.3zM10.3 21.1h21.6v.4H10.3zM40.9 19.1h30.5v2.6H40.9z" class="st2"/>
  <circle cx="79.6" cy="42.8" r="1.6" fill="#707185"/>
</svg>