<svg xmlns="http://www.w3.org/2000/svg" xmlns:xlink="http://www.w3.org/1999/xlink" viewBox="0 -0.844 96.713 82.5">
  <defs>
    <path id="a" d="M0 0h96.713v80.812H0z"/>
  </defs>
  <clipPath id="b">
    <use overflow="visible" xlink:href="#a"/>
  </clipPath>
  <path fill="#D6D6D6" d="M96.713 74.879c0 3.277-2.655 5.934-5.933 5.934H5.933C2.656 80.812 0 78.156 0 74.879V5.933C0 2.656 2.656 0 5.933 0H90.78c3.275 0 5.933 2.656 5.933 5.934v68.945z" clip-path="url(#b)"/>
  <defs>
    <path id="c" d="M0 0h96.713v80.812H0z"/>
  </defs>
  <clipPath id="d">
    <use overflow="visible" xlink:href="#c"/>
  </clipPath>
  <path fill="#E90E2E" d="M10.304 73.354c-1.572 0-2.847-1.275-2.847-2.849V10.304c0-1.572 1.275-2.848 2.847-2.848h76.105c1.572 0 2.847 1.275 2.847 2.848v60.202c0 1.572-1.274 2.849-2.847 2.849l-76.105-.001z" clip-path="url(#d)"/>
  <g>
    <defs>
      <path id="e" d="M0 0h96.713v80.812H0z"/>
    </defs>
    <clipPath id="f">
      <use overflow="visible" xlink:href="#e"/>
    </clipPath>
    <path fill="#242633" d="M86.409 73.354c1.57 0 2.847-1.275 2.847-2.849V68.82L64.271 43.838l-7.619 7.62L44.543 39.35 17.59 66.304 7.457 56.171v14.336c0 1.572 1.275 2.849 2.847 2.849l76.105-.002z" clip-path="url(#f)"/>
  </g>
  <g>
    <defs>
      <path id="g" d="M0 0h96.713v80.812H0z"/>
    </defs>
    <clipPath id="h">
      <use overflow="visible" xlink:href="#g"/>
    </clipPath>
    <path fill="#FFF" d="M63.979 25.842c0 4.315-3.498 7.812-7.812 7.812s-7.812-3.497-7.812-7.812c0-4.313 3.498-7.812 7.812-7.812s7.812 3.498 7.812 7.812" clip-path="url(#h)"/>
  </g>
  <g>
    <defs>
      <path id="i" d="M0 0h96.713v80.812H0z"/>
    </defs>
    <clipPath id="j">
      <use overflow="visible" xlink:href="#i"/>
    </clipPath>
    <path fill="#44475A" d="M81.819 73.354c.27 0 .525-.05.773-.12l-28.25-28.249-14.647 14.649-2.542-2.542-16.262 16.262h60.928z" clip-path="url(#j)"/>
  </g>
</svg>