<svg xmlns="http://www.w3.org/2000/svg" width="85.172" height="82.502">
  <path fill="#9B9B9B" d="M80.086 71.923c0 3.108-3.15 5.652-7 5.652h-61c-3.85 0-7-2.544-7-5.652 0-3.109 3.15-5.653 7-5.653h61c3.85 0 7 2.543 7 5.653z"/>
  <path fill="#E90E2E" d="M80.086 11.861c0 3.814-3.15 6.935-7 6.935h-61c-3.85 0-7-3.121-7-6.935 0-3.814 3.15-6.935 7-6.935h61c3.85 0 7 3.121 7 6.935z"/>
  <path fill="#DCDCDC" d="M5.086 13.292h75v57.789h-75z"/>
  <g fill="#C8C8C8">
    <path d="M10.252 21.878h20.089v16.89H10.252zM32.542 21.878H52.63v16.89H32.542zM54.833 21.878H74.92v16.89H54.833zM10.252 44.614h20.089v16.891H10.252zM32.542 44.614H52.63v16.891H32.542zM54.833 44.614H74.92v16.891H54.833z"/>
  </g>
  <path fill="#E90E2E" d="M26.731 33.857c0 1.1-.9 2-2 2h-9.165c-1.1 0-2-.9-2-2v-7.068c0-1.1.9-2 2-2h9.165c1.1 0 2 .9 2 2v7.068z"/>
</svg>