<svg xmlns="http://www.w3.org/2000/svg" xmlns:xlink="http://www.w3.org/1999/xlink" viewBox="-0.438 -1.24 108 82.5">
  <defs>
    <path id="a" d="M0 0h107.125v80.021H0z"/>
  </defs>
  <clipPath id="b">
    <use overflow="visible" xlink:href="#a"/>
  </clipPath>
  <path fill="#D6D6D6" d="M107.125 17.648c0-3.503-2.84-6.343-6.344-6.343H75.298c-2.738 0-4.961-2.223-4.961-4.963C70.337 2.84 67.498 0 63.996 0H43.129c-3.503 0-6.343 2.84-6.343 6.343 0 2.74-2.221 4.963-4.962 4.963H6.343C2.839 11.305 0 14.146 0 17.648v56.028c0 3.505 2.839 6.345 6.343 6.345h94.438c3.504 0 6.344-2.84 6.344-6.345V17.648z" clip-path="url(#b)"/>
  <defs>
    <path id="c" d="M0 0h107.125v80.021H0z"/>
  </defs>
  <clipPath id="d">
    <use overflow="visible" xlink:href="#c"/>
  </clipPath>
  <path fill="#E90E2E" d="M0 27.732h107.125V62.99H0z" clip-path="url(#d)"/>
  <defs>
    <path id="e" d="M0 0h107.125v80.021H0z"/>
  </defs>
  <clipPath id="f">
    <use overflow="visible" xlink:href="#e"/>
  </clipPath>
  <path fill="#242633" d="M66.714 6.343c0-1.5-1.221-2.72-2.719-2.72H43.129c-1.499 0-2.719 1.22-2.719 2.72v4.963c0 1.334 1.082 2.416 2.416 2.416h21.421c1.362 0 2.467-1.105 2.467-2.468V6.343z" clip-path="url(#f)"/>
  <defs>
    <path id="g" d="M0 0h107.125v80.021H0z"/>
  </defs>
  <clipPath id="h">
    <use overflow="visible" xlink:href="#g"/>
  </clipPath>
  <path fill="#F0F3F3" d="M79.895 45.361c0 14.543-11.789 26.333-26.332 26.333S27.23 59.904 27.23 45.361c0-14.542 11.789-26.332 26.333-26.332 14.542 0 26.332 11.79 26.332 26.332" clip-path="url(#h)"/>
  <defs>
    <path id="i" d="M0 0h107.125v80.021H0z"/>
  </defs>
  <clipPath id="j">
    <use overflow="visible" xlink:href="#i"/>
  </clipPath>
  <path fill="#242633" d="M75.216 45.361c0 11.959-9.695 21.655-21.654 21.655-11.958 0-21.654-9.696-21.654-21.655s9.695-21.654 21.654-21.654 21.654 9.695 21.654 21.654" clip-path="url(#j)"/>
  <g>
    <defs>
      <path id="k" d="M0 0h107.125v80.021H0z"/>
    </defs>
    <clipPath id="l">
      <use overflow="visible" xlink:href="#k"/>
    </clipPath>
    <path fill="#44475A" d="M71.326 45.361c0 9.811-7.953 17.764-17.764 17.764-9.812 0-17.764-7.953-17.764-17.764 0-9.812 7.953-17.764 17.764-17.764s17.764 7.953 17.764 17.764" clip-path="url(#l)"/>
  </g>
  <g>
    <defs>
      <path id="m" d="M0 0h107.125v80.021H0z"/>
    </defs>
    <clipPath id="n">
      <use overflow="visible" xlink:href="#m"/>
    </clipPath>
    <path fill="#353744" d="M68.205 45.361c0 8.087-6.557 14.643-14.644 14.643s-14.642-6.556-14.642-14.643 6.555-14.643 14.642-14.643 14.644 6.556 14.644 14.643" clip-path="url(#n)"/>
  </g>
  <g>
    <defs>
      <path id="o" d="M0 0h107.125v80.021H0z"/>
    </defs>
    <clipPath id="p">
      <use overflow="visible" xlink:href="#o"/>
    </clipPath>
    <path fill="#242633" d="M60.518 45.361c0 3.842-3.114 6.956-6.956 6.956-3.841 0-6.955-3.114-6.955-6.956 0-3.841 3.114-6.955 6.955-6.955s6.956 3.114 6.956 6.955" clip-path="url(#p)"/>
  </g>
  <g>
    <defs>
      <path id="q" d="M0 0h107.125v80.021H0z"/>
    </defs>
    <clipPath id="r">
      <use overflow="visible" xlink:href="#q"/>
    </clipPath>
    <path fill="#44475A" d="M94.708 7.728H87.5c-1.36 0-2.467 1.104-2.467 2.467v1.104h12.143v-1.104c-.001-1.363-1.106-2.467-2.468-2.467" clip-path="url(#r)"/>
  </g>
  <g>
    <defs>
      <path id="s" d="M0 0h107.125v80.021H0z"/>
    </defs>
    <clipPath id="t">
      <use overflow="visible" xlink:href="#s"/>
    </clipPath>
    <path fill="#D6D6D6" d="M18.047 27.602c0 2.894-2.346 5.238-5.239 5.238-2.894 0-5.239-2.345-5.239-5.238 0-2.895 2.345-5.239 5.239-5.239 2.893-.001 5.239 2.345 5.239 5.239" clip-path="url(#t)"/>
  </g>
  <g>
    <defs>
      <path id="u" d="M0 0h107.125v80.021H0z"/>
    </defs>
    <clipPath id="v">
      <use overflow="visible" xlink:href="#u"/>
    </clipPath>
    <path fill="#E90E2E" d="M16.138 27.602c0 1.839-1.491 3.33-3.33 3.33s-3.33-1.491-3.33-3.33 1.491-3.33 3.33-3.33 3.33 1.491 3.33 3.33" clip-path="url(#v)"/>
  </g>
  <g>
    <defs>
      <path id="w" d="M0 0h107.125v80.021H0z"/>
    </defs>
    <clipPath id="x">
      <use overflow="visible" xlink:href="#w"/>
    </clipPath>
    <path fill="#F0F3F3" d="M57.639 43.449c0 1.195-.97 2.165-2.164 2.165-1.195 0-2.165-.97-2.165-2.165s.97-2.165 2.165-2.165c1.194 0 2.164.969 2.164 2.165" clip-path="url(#x)"/>
  </g>
  <g>
    <defs>
      <path id="y" d="M0 0h107.125v80.021H0z"/>
    </defs>
    <clipPath id="z">
      <use overflow="visible" xlink:href="#y"/>
    </clipPath>
    <path fill="#F0F3F3" d="M51.65 48.355c0 .599-.485 1.082-1.083 1.082-.597 0-1.082-.483-1.082-1.082s.485-1.083 1.082-1.083c.599 0 1.083.485 1.083 1.083" clip-path="url(#z)"/>
  </g>
  <g>
    <defs>
      <path id="A" d="M0 0h107.125v80.021H0z"/>
    </defs>
    <clipPath id="B">
      <use overflow="visible" xlink:href="#A"/>
    </clipPath>
    <path fill="#44475A" d="M42.826 11.909c-.333 0-.604-.271-.604-.604V6.343c0-.501.407-.907.908-.907h20.866c.5 0 .906.406.906.907v4.911c0 .361-.294.655-.654.655H42.826z" clip-path="url(#B)"/>
  </g>
  <g>
    <defs>
      <path id="C" d="M0 0h107.125v80.021H0z"/>
    </defs>
    <clipPath id="D">
      <use overflow="visible" xlink:href="#C"/>
    </clipPath>
    <path fill="#F0F3F3" d="M56.798 8.887c0 .346-.28.626-.627.626h-5.444c-.346 0-.626-.28-.626-.626v-.533c0-.347.28-.626.626-.626h5.444c.347 0 .627.279.627.626v.533z" clip-path="url(#D)"/>
  </g>
</svg>