<svg xmlns="http://www.w3.org/2000/svg" id="Layer_2" viewBox="0 0 110.5 140.2">
  <style>
    .st2{fill:#44475a}
  </style>
  <path fill="#fff" d="M110.5 140.2H0V0h82.9l27.6 27.3z"/>
  <path fill="#d6d6d6" d="M82.9 27.3h27.6L82.9 0z"/>
  <path id="path4463_1_" d="M43.9 79c2-3.8 4.2-8.2 6-12.5l.7-1.7c-2.3-8.8-3.7-15.9-2.5-20.5.3-1.2 1.7-1.9 3.2-1.9h1.1c2 0 3 2.6 3.1 3.6.2 1.7-.6 4.5-.6 4.5 0-1.1 0-3-.7-4.6-.8-1.8-1.6-2.9-2.4-3.1-.4.2-.7.7-.8 1.7-.2 1.4-.3 3.1-.3 3.9 0 3.1.6 7.2 1.8 11.5.2-.7.4-1.3.6-1.9.2-.9 1.8-7.1 1.8-7.1s-.4 8.2-.9 10.7c-.1.5-.2 1-.4 1.6 2 5.5 5.2 10.5 9 14.1 1.5 1.4 3.4 2.5 5.2 3.6 3.9-.6 7.5-.8 10.6-.8 4 .1 6.9.6 8.1 1.8.6.6.8 1.3.9 2 0 .3-.1 1-.2 1.2 0-.2 0-1.3-3.2-2.3-2.5-.8-7.3-.8-13-.2 6.6 3.2 13 4.8 15 3.9.5-.2 1.1-1.1 1.1-1.1s-.4 1.6-.6 2c-.3.4-1 .9-1.6 1.1-3.2.9-11.6-1.1-18.8-5.3C58 84.4 49 86.6 41.9 89c-7 12.3-12.3 18-16.6 15.8l-1.6-.8c-.6-.4-.7-1.3-.6-2 .5-2.5 3.6-6.1 9.8-9.8.7-.4 3.6-2 3.6-2s-2.2 2.1-2.7 2.5c-4.9 4-8.6 9.1-8.5 11.1v.2c4.2-.7 10.5-9.2 18.6-25m2.6 1.3c-1.3 2.5-2.7 4.9-3.9 7.1 6.7-2.8 14-4.6 20.9-5.9-.9-.6-1.8-1.3-2.7-2C57 76.2 54.1 72.2 52 68c-1.3 3.5-2.9 7.4-5.5 12.3" class="st2"/>
  <path d="M50.1 97.3h4.6c1.4 0 2.4.4 3.1 1.2.7.8 1.1 1.9 1.1 3.4s-.4 2.6-1.1 3.5c-.7.8-1.8 1.2-3.1 1.2h-1.8v4.9h-2.8V97.3m2.7 2.7v4h1.5c.5 0 1-.2 1.2-.5.3-.3.4-.8.4-1.5 0-.6-.1-1.1-.4-1.5-.3-.3-.7-.5-1.2-.5h-1.5m10.8.1v8.7h1c1.1 0 2-.4 2.6-1.1.6-.7.9-1.8.9-3.2 0-1.4-.3-2.5-.9-3.2-.6-.7-1.5-1.1-2.6-1.1h-1m-2.7-2.9h2.9c1.6 0 2.9.2 3.6.5.8.3 1.5.8 2.1 1.6.5.6.9 1.4 1.1 2.2.2.8.4 1.8.4 2.9 0 1.1-.1 2-.4 2.9-.2.8-.6 1.6-1.1 2.2-.6.7-1.3 1.3-2.1 1.6-.8.3-2 .5-3.6.5h-2.9V97.3m12.2 0h7.5v2.8h-4.7v2.7h4.4v2.8h-4.4v6h-2.8V97.3" class="st2"/>
</svg>