<svg xmlns="http://www.w3.org/2000/svg" xmlns:xlink="http://www.w3.org/1999/xlink" width="85.173" height="82.502">
  <path fill="#D6D6D6" d="M3.511 4.723h78.151v56.631H3.511z"/>
  <defs>
    <path id="a" d="M0 0h85.173v82.502H0z"/>
  </defs>
  <clipPath id="b">
    <use overflow="visible" xlink:href="#a"/>
  </clipPath>
  <path fill="#44475A" d="M85.173 1.173C85.173.525 84.647 0 84 0H1.173C.525 0 0 .525 0 1.173v2.376c0 .648.525 1.173 1.173 1.173H84c.647 0 1.173-.525 1.173-1.173V1.173z" clip-path="url(#b)"/>
  <path fill="#242633" d="M44.192 75.564v-9.488h-3.21v9.488c-.76.515-1.259 1.385-1.259 2.371 0 1.581 1.283 2.863 2.864 2.863s2.863-1.282 2.863-2.863c0-.986-.499-1.856-1.258-2.371" clip-path="url(#b)"/>
  <path fill="#44475A" d="M85.173 62.527c0-.647-.525-1.173-1.173-1.173H1.176c-.648 0-1.173.525-1.173 1.173v2.376c0 .648.525 1.173 1.173 1.173H84c.647 0 1.173-.524 1.173-1.173v-2.376zM23.855 76.81c-.906-.176-1.88.088-2.581.788-1.122 1.122-1.121 2.94 0 4.063 1.122 1.121 2.941 1.121 4.063 0 .701-.702.964-1.676.789-2.582l10.392-10.393h-4.54l-8.123 8.124z" clip-path="url(#b)"/>
  <path fill="#242633" d="M34.588 66.077l-2.61 2.61h4.541l2.609-2.61z" clip-path="url(#b)"/>
  <path fill="#44475A" d="M62.811 77.612c-.692-.692-1.652-.954-2.548-.786l-8.141-8.14h-4.541l10.411 10.411c-.169.895.093 1.856.784 2.549 1.114 1.113 2.921 1.113 4.034 0 1.115-1.114 1.115-2.92.001-4.034" clip-path="url(#b)"/>
  <path fill="#242633" d="M49.512 66.077h-4.54l2.608 2.61h4.541z" clip-path="url(#b)"/>
  <path fill="#5A5E70" d="M21.513 80.067c-.253 0-.459-.205-.459-.459 0-1.24 1.01-2.25 2.25-2.25.253 0 .459.206.459.459s-.206.459-.459.459c-.735 0-1.332.598-1.332 1.332 0 .254-.206.459-.459.459M59.021 80.067c-.254 0-.459-.205-.459-.459 0-1.24 1.01-2.25 2.25-2.25.254 0 .459.206.459.459s-.205.459-.459.459c-.734 0-1.332.598-1.332 1.332 0 .254-.206.459-.459.459" clip-path="url(#b)"/>
  <path fill="#44475A" d="M40.845 78.412c-.253 0-.459-.205-.459-.459 0-1.24 1.01-2.25 2.25-2.25.254 0 .459.206.459.459s-.205.459-.459.459c-.734 0-1.333.598-1.333 1.332 0 .254-.205.459-.458.459" clip-path="url(#b)"/>
  <path fill="none" stroke="#E90E2E" stroke-miterlimit="10" stroke-width="4" d="M16.898 49.648l18.491-18.49 10.162 10.163 16.721-16.722" clip-path="url(#b)"/>
  <path fill="#E90E2E" d="M66.263 31.891l4.128-15.411-15.411 4.128z" clip-path="url(#b)"/>
</svg>