<svg xmlns="http://www.w3.org/2000/svg" viewBox="0 0 65 65">
  <path fill="#fff" d="M36.2 34.7c0 1-.4 1.9-1.1 2.7s-1.6 1.1-2.7 1.1c-1 0-1.9-.4-2.7-1.1s-1.1-1.6-1.1-2.7V17.2c0-1 .4-1.9 1.1-2.7s1.6-1.1 2.7-1.1c1 0 1.9.4 2.7 1.1s1.1 1.6 1.1 2.7v17.5zm-3.7 16.2c-1 0-1.9-.4-2.7-1.1s-1.1-1.6-1.1-2.7.4-1.9 1.1-2.7 1.6-1.1 2.7-1.1c1 0 1.9.4 2.7 1.1s1.1 1.6 1.1 2.7-.4 1.9-1.1 2.7-1.7 1.1-2.7 1.1zm0-50.9C28 0 23.8.8 19.8 2.5s-7.4 4-10.4 7c-2.9 2.9-5.3 6.4-7 10.4S0 28 0 32.5s.8 8.7 2.5 12.7 4 7.4 7 10.4 6.4 5.3 10.4 7S28 65 32.5 65s8.7-.8 12.7-2.5 7.4-4 10.4-7c2.9-2.9 5.3-6.4 7-10.4 1.7-4 2.5-8.2 2.5-12.7s-.8-8.7-2.5-12.7-4-7.4-7-10.4c-2.9-2.9-6.4-5.3-10.4-7C41.2.8 37 0 32.5 0z"/>
</svg>