<svg xmlns="http://www.w3.org/2000/svg" xmlns:xlink="http://www.w3.org/1999/xlink" width="85.172" height="82.502">
  <path fill="#D6D6D6" d="M16.75 11.996h52.859V78.71H16.75z"/>
  <defs>
    <path id="a" d="M13.097-.096H72.17v82.694H13.097z"/>
  </defs>
  <clipPath id="b">
    <use overflow="visible" xlink:href="#a"/>
  </clipPath>
  <path fill="#44475A" d="M70.305 10.342H58.252V9.305c0-1.415-2.534-1.156-3.494-1.521l-.079-.027-.076-.015c-.021-.006-1.903-.347-4.264-.678V5.44c0-1.518-1.181-2.757-2.628-2.757h-1.532c-.414-1.548-1.903-2.779-3.547-2.779-1.622 0-3.142 1.265-3.569 2.82l-1.507-.041c-1.453 0-2.631 1.239-2.631 2.757v1.624c-1.813.257-3.705.579-4.104.651h-.137l-.198.081c-1.022.404-3.473.107-3.473 1.51v1.037H14.959c-1.024 0-1.862.839-1.862 1.865v68.52c0 1.03.838 1.87 1.862 1.87h55.346c1.022 0 1.864-.84 1.864-1.87v-68.52c0-1.026-.841-1.866-1.864-1.866m-27.673-8.59c.619 0 1.124.502 1.124 1.122 0 .621-.505 1.126-1.124 1.126-.62 0-1.123-.505-1.123-1.126 0-.62.503-1.122 1.123-1.122m24.787 67.51l-12.086 6.107H19.34c-.821 0-1.493-.67-1.493-1.491V15.595c0-.821.672-1.49 1.493-1.49h15.538l.737 1.835c.44.875 1.605 1.587 2.583 1.587h8.869c.98 0 2.141-.712 2.584-1.587l.763-1.805h7.84v-.03h7.672c.819 0 1.495.669 1.495 1.49v53.667z" clip-path="url(#b)"/>
  <path fill="#E90E2E" d="M62.917 28.583h-40.57v-4.738h40.57v4.738zm0 5.834h-40.57v4.738h40.57v-4.738zm0 10.571h-40.57v4.736h40.57v-4.736zm0 10.574h-40.57v4.739h40.57v-4.739z" clip-path="url(#b)"/>
  <path fill="#BCBCBC" d="M55.336 75.369l6.656-8.436s1.09-1.292 2.246-.259c.608.482 3.181 2.587 3.181 2.587l-12.083 6.108z" clip-path="url(#b)"/>
</svg>