<svg xmlns="http://www.w3.org/2000/svg" id="Layer_1" viewBox="0 0 85.2 82.5">
  <style>
    .st0{fill:#fff}.st1{fill:#e90e2e}
  </style>
  <path d="M6.2 55.3h19.7V66H6.2zM29.6 55.3h19.7V66H29.6zM53.1 55.3h19.7V66H53.1zM6.2 17.1h23.5v.9H6.2zM6.2 19.3h23.5v.4H6.2zM39.6 17.1h33.2v2.8H39.6z" class="st0"/>
  <path d="M31.6 26.5c2.1-2.1 3.4-5 3.4-8.2 0-6.4-5.2-11.5-11.5-11.5C17.1 6.7 12 11.9 12 18.3c0 3.2 1.4 6.2 3.5 8.3v-4c-.7-1.3-1.1-2.7-1.1-4.2 0-5 4.1-9.1 9.1-9.1s9.1 4.1 9.1 9.1c0 1.5-.3 2.9-1 4.1v4z" class="st1"/>
  <path d="M15.5 33.9v-2.8c-4.3-2.7-7.2-7.4-7.2-12.9C8.3 9.8 15.1 3 23.4 3c8.4 0 15.2 6.8 15.2 15.2 0 4-1.6 7.7-4.2 10.4.3.1 1.9.7 2.4 1 2.6-3.1 4.2-7.1 4.2-11.4C41 8.5 33.1.6 23.4.6S5.9 8.5 5.9 18.3c0 6.8 3.8 12.7 9.6 15.6z" class="st1"/>
  <circle cx="64.8" cy="18.3" r="17.5" fill="#aaa"/>
  <path fill="#d6d6d6" d="M54.4 66.8c0 6.7-5.5 12.1-12.2 12.1h-9.7c-3.2 0-6.4-1.3-8.6-3.7 0 0-13.9-14.5-15.7-16.3-.6-.6-.9-1.4-.9-2.3 0-.8.3-1.5.9-2.1l.3-.3c.5-.4 1.2-.7 1.9-.7.8 0 1.6.3 2.2.9l5.4 5.5c.3.3.6.4 1 .4.7 0 1.4-.6 1.4-1.3V19.7c0-1.8 1.4-3.2 3.2-3.2 1.7 0 3.2 1.4 3.2 3.1v34.3c0 .4.1.7.4 1 .3.3.6.4 1 .4.2 0 .5-.1.5-.1.6-.2 1-.7 1-1.3V36.6c0-1.8 1.5-3.2 3.2-3.2 1.8 0 3.2 1.4 3.2 3.2v16.6c0 .8.6 1.4 1.4 1.4.8 0 1.4-.6 1.4-1.4v-13c0-1.8 1.4-3.2 3.2-3.2 1.8 0 3.2 1.4 3.2 3.2V54c0 .6.3 1.1.9 1.3 0 0 .3.1.4.1.7 0 1.4-.6 1.4-1.3v-10c0-1.8 1.5-3.2 3.2-3.2 1.8 0 3.2 1.4 3.2 3.2v22.7z"/>
  <path fill="#242633" d="M51.1 38.3c-1.3 0-2.6.5-3.5 1.2-.4-2.7-2.7-4.9-5.6-4.9-1.4 0-2.6.5-3.6 1.3-.3-2.8-2.7-5-5.6-5-1.4 0-2.5.5-3.6 1.3V19.6c0-3.1-2.5-5.5-5.6-5.5-3.1 0-5.6 2.5-5.6 5.6v36.8l-3.6-3.6c-1-1.1-2.4-1.6-3.9-1.6-2.5 0-4.5 1.7-5.3 4-.6 1.8.1 4 1.4 5.4C8.4 62.5 22.2 77 22.2 77c2.7 2.8 6.5 4.4 10.4 4.4h9.7c8 0 14.6-6.5 14.6-14.5v-23c-.1-3.1-2.7-5.6-5.8-5.6zm2.3 28.5c0 3-1.2 5.7-3.3 7.9-2.1 2.1-4.9 3.3-7.9 3.3h-9.7c-3 0-5.9-1.2-7.9-3.4C24 74 10.7 60 8.9 58.2c-.4-.4-.6-1-.6-1.6 0-.5.2-1 .6-1.4l.2-.2c.4-.3.8-.4 1.3-.4.6 0 1.1.2 1.5.6l5.4 5.5c.4.4 1 .7 1.7.7 1.3 0 2.3-1 2.3-2.3V19.7c0-1.2 1-2.2 2.2-2.2 1.2 0 2.2 1 2.2 2.2V54c0 .7.2 1.3.7 1.7.4.4 1 .7 1.6.7.2 0 .5-.1.7-.1 1-.3 1.6-1.2 1.6-2.2V36.6c0-1.2 1-2.3 2.3-2.3 1.2 0 2.2 1 2.2 2.2v16.6c0 1.3 1.1 2.4 2.4 2.4 1.3 0 2.4-1.1 2.4-2.4v-13c0-1.2 1-2.3 2.3-2.3 1.2 0 2.2 1 2.2 2.2v14c0 1 .6 1.9 1.6 2.2h.2c.4.1.5.1.6.1 1.3 0 2.3-1 2.3-2.3V44c0-1.2 1-2.3 2.3-2.3 1.2 0 2.2 1 2.2 2.2v22.9z"/>
</svg>