<svg xmlns="http://www.w3.org/2000/svg" viewBox="0 0 200 200">
  <path fill="#FFF" d="M152.7 166.9H47.3V33.1h79l26.4 26.1z"/>
  <path fill="#D6D6D6" d="M126.3 59.2h26.4l-26.4-26.1z"/>
  <path fill="#44475A" d="M89.2 108.5c1.9-3.7 4-7.8 5.7-11.9l.7-1.6c-2.2-8.4-3.5-15.2-2.4-19.6.3-1.1 1.6-1.8 3.1-1.8h1.1c1.9 0 2.8 2.4 3 3.4.2 1.6-.6 4.3-.6 4.3 0-1.1 0-2.9-.6-4.4-.8-1.8-1.6-2.8-2.2-3-.3.2-.7.7-.8 1.6-.2 1.3-.3 2.9-.3 3.8 0 3 .6 6.9 1.7 10.9l.6-1.8c.2-.9 1.7-6.8 1.7-6.8s-.4 7.8-.9 10.2c-.1.5-.2 1-.4 1.5 1.9 5.3 4.9 10 8.6 13.4 1.4 1.3 3.2 2.4 5 3.4 3.7-.5 7.2-.8 10.1-.8 3.8.1 6.6.6 7.8 1.7.6.5.8 1.2.9 1.9 0 .3-.1 1-.2 1.1 0-.2 0-1.2-3-2.2-2.4-.8-6.9-.7-12.4-.2 6.3 3.1 12.4 4.6 14.3 3.7.5-.2 1-1 1-1s-.3 1.5-.6 1.9c-.3.4-.9.9-1.5 1-3.1.8-11-1.1-18-5-7.8 1.1-16.3 3.2-23.1 5.5-6.9 11.9-11.9 17.3-16 15.3l-1.5-.8c-.6-.4-.7-1.2-.6-1.9.5-2.3 3.4-5.9 9.3-9.4.6-.4 3.5-1.9 3.5-1.9s-2.1 2-2.6 2.4c-4.7 3.9-8.2 8.7-8.1 10.6v.2c4-.5 10-8.7 17.7-23.7m2.4 1.2c-1.3 2.4-2.5 4.7-3.7 6.7 6.4-2.7 13.3-4.4 19.9-5.6-.9-.6-1.7-1.3-2.5-1.9-3.6-3.1-6.4-6.9-8.4-10.9-1.3 3.4-2.8 7-5.3 11.7"/>
  <path fill="#44475A" d="M95.1 125.9h4.4c1.3 0 2.3.4 3 1.2.7.8 1.1 1.9 1.1 3.3s-.4 2.5-1.1 3.3c-.7.8-1.7 1.1-3 1.1h-1.7v4.7h-2.6v-13.6m2.5 2.6v3.8h1.5c.5 0 .9-.2 1.2-.5.3-.3.4-.8.4-1.4 0-.6-.1-1.1-.4-1.4-.3-.3-.7-.5-1.2-.5h-1.5m10.3.1v8.3h1c1.1 0 1.9-.4 2.5-1.1.6-.7.9-1.7.9-3.1 0-1.3-.3-2.4-.9-3.1-.6-.7-1.4-1.1-2.5-1.1h-1m-2.6-2.6h2.8c1.6 0 2.7.1 3.5.4.8.3 1.4.8 2 1.5.5.6.8 1.3 1.1 2.1.2.8.3 1.7.3 2.7 0 1-.1 1.9-.3 2.7-.2.8-.6 1.5-1.1 2.1-.6.7-1.2 1.2-2 1.5-.8.3-1.9.4-3.5.4h-2.8v-13.4m11.7 0h7.1v2.6h-4.5v2.5h4.2v2.6h-4.2v5.8h-2.6v-13.5"/>
</svg>