<svg xmlns="http://www.w3.org/2000/svg" viewBox="0 0 200 200">
  <path fill="#44485B" d="M164.6 152.6c0 8.7-7.1 15.9-15.9 15.9l-97.8.1c-8.4 0-15.4-6.9-15.4-15.3l-.1-98.9c0-8.7 7.1-15.9 15.9-15.9l97.3-.1c8.7 0 15.9 7.1 15.9 15.9l.1 98.3z"/>
  <path fill="#56717A" d="M157.7 145c0 9.2-7.5 16.7-16.7 16.7H58.9c-9.2 0-16.6-7.5-16.6-16.7V64.3c0-9.2 7.5-16.7 16.6-16.7H141c9.2 0 16.7 7.5 16.7 16.7V145z"/>
  <path fill="#FFF" d="M136.9 45.2H63.1c-9.2 0-16.6 7.5-16.6 16.7v78.9c0 9.2 7.5 16.7 16.6 16.7h65.8v-24.1h24.7V61.9c0-9.2-7.5-16.7-16.7-16.7z"/>
  <path fill="silver" d="M140 56.5c0 2.1-1.7 3.8-3.8 3.8h-11.3c-2.1 0-3.8-1.7-3.8-3.8v-4.1c0-2.1 1.7-3.8 3.8-3.8h11.3c2.1 0 3.8 1.7 3.8 3.8v4.1zM78.9 56.5c0 2.1-1.7 3.8-3.8 3.8H63.8c-2.1 0-3.8-1.7-3.8-3.8v-4.1c0-2.1 1.7-3.8 3.8-3.8h11.3c2.1 0 3.8 1.7 3.8 3.8v4.1z"/>
  <path fill="#56717A" d="M76.1 52.4c0 1.8-1.5 3.3-3.3 3.3h-6.7c-1.8 0-3.3-1.5-3.3-3.3V34.8c0-1.8 1.5-3.3 3.3-3.3h6.7c1.8 0 3.3 1.5 3.3 3.3v17.6zM137.2 52.4c0 1.8-1.5 3.3-3.3 3.3h-6.7c-1.8 0-3.3-1.5-3.3-3.3V34.8c0-1.8 1.5-3.3 3.3-3.3h6.7c1.8 0 3.3 1.5 3.3 3.3v17.6z"/>
  <g fill="silver">
    <path d="M79.1 72.9H98v18.9H79.1zM102 72.9h18.9v18.9H102zM124.9 72.9h18.9v18.9h-18.9z"/>
  </g>
  <g fill="silver">
    <path d="M56.2 98.7h18.9v18.9H56.2zM79.1 98.7H98v18.9H79.1zM102 98.7h18.9v18.9H102zM124.9 98.7h18.9v18.9h-18.9z"/>
  </g>
  <g fill="silver">
    <path d="M56.2 124.5h18.9v18.9H56.2zM79.1 124.5H98v18.9H79.1zM102 124.5h18.9v18.9H102z"/>
  </g>
  <path fill="silver" d="M128.8 157.4h.5l24.3-24.1h-24.8z"/>
</svg>