<svg xmlns="http://www.w3.org/2000/svg" viewBox="0 0 200 200">
  <path fill="#FFF" d="M151.9 165.9H48.1V34.1H126l25.9 25.6z"/>
  <path fill="#D6D6D6" d="M126 59.7h25.9L126 34.1z"/>
  <g fill="#44475A">
    <path d="M64.7 90.6H71l10 12.8V90.6h6.6v24.2h-5.9l-10.3-13.3v13.3h-6.6V90.6zM91.1 90.6h11.4c3.7 0 6.3 1 7.9 2.6 1.4 1.4 2.1 3.3 2.1 5.6v.1c0 3.7-2 6.2-5 7.4l5.8 8.4h-7.7l-4.9-7.3h-3v7.3H91V90.6zm11.2 11.6c2.3 0 3.6-1.1 3.6-2.9v-.1c0-1.9-1.4-2.9-3.6-2.9h-4.4v5.8h4.4zM114.2 111.2l3.7-4.5c2.4 1.9 5.1 2.9 7.9 2.9 1.8 0 2.8-.6 2.8-1.7v-.1c0-1-.8-1.6-4.1-2.3-5.2-1.2-9.1-2.6-9.1-7.6v-.1c0-4.5 3.6-7.7 9.4-7.7 4.1 0 7.3 1.1 10 3.2l-3.4 4.7c-2.2-1.6-4.6-2.4-6.8-2.4-1.6 0-2.4.7-2.4 1.6v.1c0 1.1.8 1.6 4.2 2.4 5.6 1.2 9 3 9 7.5v.1c0 4.9-3.9 7.9-9.8 7.9-4.3 0-8.4-1.3-11.4-4z"/>
  </g>
</svg>