<svg xmlns="http://www.w3.org/2000/svg" viewBox="0 0 200 200">
  <path fill="silver" d="M107.3 3.2H47.4c-1.5 0-2.7 1.2-2.7 2.8l.7 163.8s.6.1 1.7.2l.8 8s.3 2.1 1.6 2.2c1.4.1 3.4 0 3.4 0s.9-.1 1.1-1.4c.1-1 .5-6.2.6-8.3 5.5.4 13.3.7 22.7.7h5l-.6-151.4c0-2.2.8-4.3 2.4-5.8 1.6-1.6 3.6-2.4 5.8-2.4H110V6c.1-1.6-1.2-2.8-2.7-2.8zm-59 166.9c.1 0 .1 0 0 0 .1 0 .1 0 0 0z"/>
  <path fill="#D7D7D7" d="M81.9 57.7c-1.2-.2-2.5-.3-3.8-.3-12.2 0-22.1 7.1-22.1 15.8S65.9 89 78.1 89c1.3 0 2.7-.1 3.9-.3l-.1-31z"/>
  <path fill="#44485B" d="M154.6 186.4l.7-163.8c0-1.5-1.2-2.8-2.7-2.8H92.7c-1.5 0-2.7 1.2-2.7 2.8l.7 163.8s12.3 1.5 32 1.5 31.9-1.5 31.9-1.5z"/>
  <path fill="#FFF" d="M122.4 152.1c-6.9-9-14.2-17.7-19.2-28-13.7-27.7-7.1-59.5-.4-88.2 1.1-4.7 2.3-9.3 3.5-13.9 0-.2.2-1.2.5-2.2H96.7c-3.6 26.3-5.3 53.1-3.6 79.7 1 14.8 4.2 29.3 7.6 43.7 3.4 14.5 7.3 29.1 6.1 44.1v.3c4.5.2 9.8.3 15.8.3 6.8 0 12.8-.2 17.6-.4-.1-.5-.2-1-.3-1.6-1.3-5.9-6.8-19.9-17.5-33.8z"/>
  <ellipse cx="123.3" cy="89.8" fill="silver" rx="22.1" ry="15.8"/>
  <circle cx="123.3" cy="68.3" r="3.2" fill="silver"/>
  <path fill="#FFF" d="M137.7 61.9h-29.1c-.3 0-.5-.2-.5-.5V40.1c0-.3.2-.5.5-.5h29.1c.3 0 .5.2.5.5v21.4c0 .2-.3.4-.5.4z"/>
  <path fill="silver" d="M92.3 186.5l.8 8s.3 2.1 1.6 2.2c1.4.1 3.4 0 3.4 0s.9-.1 1.1-1.4c.1-1 .5-6.2.6-8.3-3.4-.1-6-.3-7.5-.5zM153 186.5l-.8 8s-.3 2.1-1.6 2.2c-1.4.1-3.4 0-3.4 0s-.9-.1-1.1-1.4c-.1-1-.5-6.2-.6-8.3 3.4-.1 5.9-.3 7.5-.5z"/>
  <path fill="#FFF" d="M122.1 116.6c-17.8 0-31.9-3.3-32.1-3.3l.3-1.1c.1 0 14.2 3.3 31.8 3.3 17.7 0 32.5-3.2 32.6-3.2l.2 1.1c-.1 0-15.1 3.2-32.8 3.2zM129.4 75v4H127c.4-.3.6-.7.4-.9-.7-.6-4.7-.6-4.7-.6s-4 0-4.7.6c-.3.2 0 .6.4.9h-2.1v-4h-1.1v4c0 .6.5 1.1 1.1 1.1h3.6l.8 2.3h4.1l.8-2.4.1-.1-.1.1h3.9c.6 0 1.1-.5 1.1-1.1v-4h-1.2zM81.7 23H64.1c-.8 0-1.4.6-1.4 1.4V44c0 .8.6 1.4 1.4 1.4h17.7L81.7 23z"/>
  <path fill="#FFF" d="M82.2 142.7c-1.5-2.4-3.2-4.8-5.1-7.2-6.9-9-14.2-17.7-19.2-28-13.6-27.7-7.1-59.5-.3-88.2 1.1-4.7 2.3-9.3 3.5-13.9 0-.2.2-1.2.5-2.2H51.5c-3.6 26.3-5.3 53.1-3.6 79.7 1 14.8 4.2 29.3 7.6 43.7 3.4 14.5 7.3 29.1 6.1 44.1v.3c4.5.2 9.8.3 15.8.3h5l-.2-28.6z"/>
  <path fill="#FFF" d="M81.9 62.4h-.2l.2-.2v-.8c-.9-.5-4.5-.5-4.5-.5s-4 0-4.7.6c-.3.2 0 .6.4.9H71v-4h-1.1v4c0 .6.5 1.1 1.1 1.1h3.6l.8 2.3h4.1l.8-2.3H82l-.1-1.1zM82 98.8c-1.7.1-3.5.1-5.2.1-17.6 0-31.7-3.3-31.8-3.3l-.3 1.1c.1 0 14.3 3.3 32.1 3.3 1.8 0 3.5 0 5.2-.1v-1.1z"/>
</svg>