<svg xmlns="http://www.w3.org/2000/svg" viewBox="0 0 200 200">
  <path fill="#44485B" d="M132.3 178.6l.7-165.1c0-1.5-1.2-2.8-2.8-2.8H69.8c-1.5 0-2.8 1.2-2.8 2.8l.7 165.1s12.4 1.6 32.3 1.6 32.3-1.6 32.3-1.6z"/>
  <path fill="#FFF" d="M99.8 144.1c-7-9.1-14.3-17.9-19.4-28.2C66.6 88 73.2 56 80 27.1c1.1-4.7 2.3-9.4 3.5-14 0-.2.3-1.2.5-2.3H73.9c-3.7 26.5-5.3 53.5-3.6 80.3 1 14.9 4.2 29.5 7.6 44.1 3.4 14.6 7.4 29.3 6.2 44.4v.3c4.5.2 9.8.3 15.9.3 6.9 0 12.9-.2 17.8-.4-.1-.5-.2-1-.3-1.6-1.4-6-6.9-20-17.7-34.1z"/>
  <ellipse cx="100.7" cy="81.4" fill="silver" rx="22.3" ry="15.9"/>
  <circle cx="100.7" cy="59.7" r="3.2" fill="silver"/>
  <path fill="#FFF" d="M115.1 53.3H85.8c-.3 0-.5-.2-.5-.5V31.3c0-.3.2-.5.5-.5h29.4c.3 0 .5.2.5.5v21.5c-.1.3-.3.5-.6.5z"/>
  <path fill="silver" d="M69.4 178.8l.8 8.1s.3 2.2 1.6 2.2c1.4.1 3.4 0 3.4 0s.9-.1 1.1-1.4c.1-1 .5-6.2.6-8.3-3.3-.2-5.9-.4-7.5-.6zM130.6 178.8l-.8 8.1s-.3 2.2-1.6 2.2c-1.4.1-3.4 0-3.4 0s-.9-.1-1.1-1.4c-.1-1-.5-6.2-.6-8.3 3.3-.2 5.9-.4 7.5-.6z"/>
  <path fill="#FFF" d="M99.4 108.4c-17.9 0-32.2-3.3-32.3-3.4l.3-1.1c.1 0 14.3 3.3 32.1 3.3s32.7-3.2 32.9-3.2l.2 1.1c-.2.1-15.3 3.3-33.2 3.3zM106.8 66.4v4h-2.5c.4-.3.6-.7.4-.9-.7-.6-4.7-.6-4.7-.6s-4 0-4.7.6c-.3.2 0 .6.4.9h-2.1v-4h-1.1v4c0 .6.5 1.1 1.1 1.1h3.6l.8 2.3h4.1l.8-2.3h4c.6 0 1.1-.5 1.1-1.1v-4h-1.2z"/>
</svg>